<svg width="30" height="30" viewBox="0 0 30 30" fill="none" xmlns="http://www.w3.org/2000/svg">
<path d="M15 2.65344C21.8153 2.65344 27.3466 8.18474 27.3466 15.0001C27.3466 21.8278 21.8153 27.3467 15 27.3467C8.17227 27.3467 2.65332 21.8278 2.65332 15.0001C2.65332 8.18474 8.17227 2.65344 15 2.65344ZM19.7534 10.938C19.8892 10.5059 19.4941 10.0985 19.062 10.2343L12.7405 12.2097C12.4812 12.2962 12.2714 12.4937 12.1973 12.753L10.2218 19.0868C10.086 19.5066 10.4934 19.914 10.9132 19.7782L17.21 17.8028C17.4693 17.7287 17.6792 17.5188 17.7533 17.2595L19.7534 10.938Z" fill="#393F48"/>
</svg>
