<svg width="24" height="24" viewBox="0 0 24 24" fill="none" xmlns="http://www.w3.org/2000/svg">
<path d="M22.4612 21.1041C23.1906 21.1041 23.7839 21.7051 23.7839 22.444C23.7839 23.1843 23.1906 23.7839 22.4612 23.7839H14.9851C14.2557 23.7839 13.6624 23.1843 13.6624 22.444C13.6624 21.7051 14.2557 21.1041 14.9851 21.1041H22.4612ZM17.2765 1.13207L19.2077 2.66618C19.9997 3.28545 20.5276 4.10177 20.7082 4.96031C20.9166 5.9047 20.6943 6.83221 20.0691 7.63445L8.56529 22.5111C8.03734 23.1867 7.2593 23.5667 6.42569 23.5808L1.84082 23.6371C1.59074 23.6371 1.38234 23.4682 1.32676 23.2289L0.284747 18.711C0.104131 17.8806 0.284747 17.0221 0.812701 16.3606L8.96821 5.80477C9.10714 5.63588 9.35722 5.60914 9.52395 5.7344L12.9556 8.46484C13.1779 8.64781 13.4836 8.74633 13.8032 8.7041C14.4839 8.61966 14.9424 8.00038 14.873 7.33888C14.8313 7.0011 14.6646 6.71961 14.4423 6.50849C14.3728 6.4522 11.1078 3.83436 11.1078 3.83436C10.8994 3.66546 10.8577 3.35583 11.0244 3.14612L12.3165 1.46985C13.5114 -0.0642577 15.5954 -0.205002 17.2765 1.13207Z" fill="#393F48"/>
</svg>
