<svg width="30" height="30" viewBox="0 0 30 30" fill="none" xmlns="http://www.w3.org/2000/svg">
<path d="M11.9695 24.2793V21.0453C11.9695 20.2197 12.6436 19.5505 13.4752 19.5505H16.5151C16.9145 19.5505 17.2975 19.7079 17.5799 19.9883C17.8623 20.2686 18.0209 20.6488 18.0209 21.0453V24.2793C18.0184 24.6225 18.1539 24.9525 18.3975 25.1961C18.6411 25.4397 18.9726 25.5767 19.3183 25.5767H21.3923C22.3609 25.5792 23.2907 25.1989 23.9765 24.5199C24.6623 23.8408 25.0477 22.9188 25.0477 21.9572V12.7439C25.0477 11.9672 24.7009 11.2304 24.1007 10.7321L17.0455 5.1383C15.8182 4.15753 14.0598 4.18919 12.8692 5.21351L5.97492 10.7321C5.34638 11.2157 4.97071 11.9547 4.95215 12.7439V21.9478C4.95215 23.952 6.58875 25.5767 8.60761 25.5767H10.6342C11.3523 25.5767 11.9359 25.0015 11.9411 24.2887L11.9695 24.2793Z" fill="#393F48"/>
</svg>
