<svg width="30" height="30" viewBox="0 0 30 30" fill="none" xmlns="http://www.w3.org/2000/svg">
<path d="M22.8675 18.0836C22.5231 18.4173 22.3649 18.8999 22.4434 19.3732L23.6253 25.9143C23.725 26.4687 23.491 27.0297 23.027 27.3501C22.5723 27.6825 21.9674 27.7224 21.4715 27.4565L15.5832 24.3854C15.3785 24.2764 15.1512 24.2179 14.9185 24.2112H14.5582C14.4332 24.2298 14.3109 24.2697 14.1993 24.3309L8.30965 27.4166C8.01849 27.5628 7.68878 27.6147 7.36572 27.5628C6.57866 27.4139 6.05352 26.6641 6.18248 25.8731L7.36572 19.332C7.44415 18.8547 7.28595 18.3695 6.94161 18.0304L2.14085 13.3773C1.73934 12.9877 1.59975 12.4027 1.78322 11.8749C1.96137 11.3485 2.41605 10.9642 2.96513 10.8778L9.57266 9.91927C10.0752 9.86742 10.5166 9.56164 10.7426 9.10962L13.6542 3.14024C13.7233 3.00729 13.8124 2.88498 13.9201 2.78128L14.0397 2.68822C14.1022 2.61908 14.174 2.56192 14.2538 2.51538L14.3987 2.4622L14.6247 2.36914H15.1844C15.6843 2.42099 16.1243 2.72012 16.3543 3.16683L19.3045 9.10962C19.5172 9.54436 19.9307 9.84615 20.4079 9.91927L27.0155 10.8778C27.5739 10.9576 28.0405 11.3432 28.2253 11.8749C28.3995 12.4081 28.2492 12.993 27.8398 13.3773L22.8675 18.0836Z" fill="#393F48"/>
</svg>
