<svg width="30" height="30" viewBox="0 0 30 30" fill="none" xmlns="http://www.w3.org/2000/svg">
<path fill-rule="evenodd" clip-rule="evenodd" d="M21.028 25.5H15.8494C13.3757 25.5 11.8768 24.268 11.3123 23.8044C11.3119 23.804 11.3119 23.8035 11.3111 23.8033C11.2464 23.75 11.1647 23.7211 11.0797 23.7211H10.0245C9.75313 23.7211 9.5332 23.5031 9.5332 23.2341V13.0801C9.5332 12.8106 9.75313 12.593 10.0245 12.593H10.9389C11.2586 12.5746 12.9718 11.7264 13.9951 9.99919C14.3219 9.44789 14.4859 8.78863 14.5996 7.568C14.6207 7.1135 14.5984 6.71601 14.5784 6.36488C14.5407 5.68841 14.5106 5.15432 14.8725 4.78799C14.8763 4.78427 14.8801 4.78054 14.8836 4.77705C14.9803 4.68536 15.207 4.47057 16.3503 4.50338C16.8294 4.51711 17.4614 4.57924 17.8001 4.71142C19.1066 5.2227 19.4831 6.15796 19.5688 6.85285C19.8788 9.35291 18.7094 11.7054 18.4625 12.1683C18.4212 12.2663 18.4311 12.3663 18.4881 12.4548C18.5449 12.5423 18.6426 12.5928 18.7557 12.5928H23.1498C25.0149 12.5928 26.0002 13.5211 26.0002 15.2776C26.0002 17.0795 24.8546 20.4545 24.1697 22.4707C23.9885 23.0036 23.8453 23.4252 23.7904 23.628C23.7873 23.6368 23.785 23.645 23.7824 23.6538C23.394 24.792 22.3377 25.4997 21.028 25.4997L21.028 25.5Z" fill="#393F48"/>
<path fill-rule="evenodd" clip-rule="evenodd" d="M7.56816 23.7246H4.49103C4.21923 23.7246 4.00023 23.5065 4.00023 23.2375L4 13.08C4 12.8105 4.21946 12.5929 4.49079 12.5929H7.56792C7.83925 12.5929 8.05871 12.8105 8.05871 13.08V23.2375C8.05942 23.5065 7.83996 23.7246 7.56816 23.7246H7.56816Z" fill="#393F48"/>
</svg>
