<svg width="30" height="30" viewBox="0 0 30 30" fill="none" xmlns="http://www.w3.org/2000/svg">
<path fill-rule="evenodd" clip-rule="evenodd" d="M12.7947 4.8997C12.1048 4.66499 11.3926 4.53659 10.6572 4.51422H10.5287C10.2019 4.51422 9.87616 4.53659 9.5481 4.58447H9.40802C9.05777 4.63008 8.70873 4.71173 8.37016 4.82845C4.0145 6.25396 2.4618 10.982 3.781 15.1147C4.52817 17.2266 5.73176 19.1423 7.29615 20.7172C9.57144 22.912 12.0592 24.8499 14.7315 26.5076L15.035 26.6956L15.3269 26.5193C17.9898 24.8499 20.4636 22.912 22.7179 20.7289C24.2927 19.154 25.4952 17.2266 26.2307 15.1147C27.5277 10.982 25.975 6.25396 21.666 4.85296C20.9667 4.61839 20.2312 4.51422 19.4946 4.51422C17.8719 4.50282 16.297 5.03979 15 6.03093C14.8949 5.95042 14.7665 5.87916 14.6498 5.81033C14.533 5.73908 14.3229 5.56507 14.1478 5.47173L13.7041 5.27322C13.4706 5.14482 13.2267 5.05147 12.9687 4.96853C12.9453 4.94644 12.9103 4.92193 12.8636 4.8997H12.7947Z" fill="#393F48"/>
</svg>
