<svg width="30" height="30" viewBox="0 0 30 30" fill="none" xmlns="http://www.w3.org/2000/svg">
<path d="M14.9363 18.1745C19.2253 18.1745 22.8875 18.8545 22.8875 21.5754C22.8875 24.2953 19.2488 25 14.9363 25C10.6473 25 6.98511 24.32 6.98511 21.6002C6.98511 18.8793 10.6238 18.1745 14.9363 18.1745ZM21.7938 16.5361C23.4335 16.5057 25.1964 16.7309 25.8478 16.8907C27.2278 17.162 28.1355 17.7159 28.5116 18.5208C28.8295 19.1816 28.8295 19.9483 28.5116 20.608C27.9363 21.8564 26.0817 22.2572 25.3609 22.3608C25.212 22.3833 25.0923 22.2538 25.1079 22.1041C25.4762 18.6446 22.5471 17.0044 21.7894 16.6273C21.7569 16.6104 21.7502 16.5845 21.7535 16.5687C21.7558 16.5575 21.7692 16.5395 21.7938 16.5361ZM7.89823 16.5338L8.207 16.5365C8.23162 16.5399 8.24393 16.5579 8.24617 16.5681C8.24953 16.585 8.24282 16.6097 8.21148 16.6277C7.45262 17.0049 4.52354 18.6451 4.89177 22.1034C4.90744 22.2543 4.7888 22.3826 4.63994 22.3612C3.91914 22.2577 2.06454 21.8569 1.48924 20.6084C1.17025 19.9476 1.17025 19.1821 1.48924 18.5213C1.86531 17.7163 2.7719 17.1625 4.15194 16.89C4.80447 16.7313 6.56617 16.5062 8.207 16.5365L7.89823 16.5338ZM14.9363 5C17.8564 5 20.1979 7.35284 20.1979 10.2911C20.1979 13.2282 17.8564 15.5833 14.9363 15.5833C12.0162 15.5833 9.67468 13.2282 9.67468 10.2911C9.67468 7.35284 12.0162 5 14.9363 5ZM22.0793 5.88237C24.8998 5.88237 27.1148 8.55154 26.3604 11.5247C25.8511 13.5263 24.0077 14.8558 21.9539 14.8018C21.7479 14.7961 21.5454 14.777 21.3495 14.7432C21.2074 14.7184 21.1357 14.5575 21.2163 14.4381C21.9998 13.2786 22.4464 11.8838 22.4464 10.3865C22.4464 8.82398 21.9584 7.36724 21.1111 6.17282C21.0842 6.13567 21.0641 6.07825 21.0909 6.03547C21.1133 6.00057 21.1547 5.98256 21.1939 5.97356C21.4793 5.91502 21.7726 5.88237 22.0793 5.88237ZM7.91991 5.88226C8.22659 5.88226 8.51983 5.9149 8.80636 5.97344C8.84441 5.98245 8.88695 6.00159 8.90933 6.03536C8.93507 6.07814 8.91605 6.13555 8.88918 6.1727C8.04191 7.36713 7.55392 8.82386 7.55392 10.3864C7.55392 11.8837 8.0005 13.2785 8.78397 14.438C8.86456 14.5574 8.79293 14.7183 8.65078 14.7431C8.45379 14.778 8.25233 14.796 8.04639 14.8016C5.99256 14.8557 4.14915 13.5262 3.63989 11.5246C2.88439 8.55143 5.09939 5.88226 7.91991 5.88226Z" fill="#393F48"/>
</svg>
