<svg width="36" height="36" viewBox="0 0 36 36" fill="none" xmlns="http://www.w3.org/2000/svg">
<path d="M17.8525 11.6153C18.7388 11.6153 19.8499 11.0161 20.5115 10.2172C21.1107 9.49316 21.5476 8.482 21.5476 7.47085C21.5476 7.33353 21.5351 7.19621 21.5102 7.08386C20.524 7.12131 19.338 7.74548 18.6265 8.58187C18.0647 9.21852 17.5529 10.2172 17.5529 11.2408C17.5529 11.3906 17.5779 11.5404 17.5904 11.5904C17.6528 11.6028 17.7527 11.6153 17.8525 11.6153ZM14.7317 26.7202C15.9426 26.7202 16.4794 25.9088 17.9898 25.9088C19.5253 25.9088 19.8624 26.6953 21.2106 26.6953C22.5338 26.6953 23.4201 25.4719 24.2565 24.2735C25.1928 22.9003 25.5797 21.5521 25.6047 21.4897C25.5173 21.4647 22.9832 20.4286 22.9832 17.52C22.9832 14.9983 24.9805 13.8623 25.0929 13.775C23.7696 11.8775 21.7598 11.8275 21.2106 11.8275C19.725 11.8275 18.5141 12.7264 17.7527 12.7264C16.9288 12.7264 15.8427 11.8775 14.5569 11.8775C12.1102 11.8775 9.62598 13.8998 9.62598 17.7197C9.62598 20.0915 10.5497 22.6007 11.6857 24.2235C12.6594 25.5967 13.5083 26.7202 14.7317 26.7202Z" fill="white"/>
</svg>
