<svg width="40" height="47" viewBox="0 0 40 47" fill="none" xmlns="http://www.w3.org/2000/svg">
<rect x="16" y="42.0571" width="8" height="4" rx="2" fill="#264C97" fill-opacity="0.3"/>
<mask id="path-2-inside-1_162_8166" fill="white">
<path fill-rule="evenodd" clip-rule="evenodd" d="M20 0C8.95431 0 0 8.95431 0 20C0 29.8009 7.04976 37.9552 16.355 39.6686L17.9606 42.2404C18.3998 42.944 19.1706 43.3714 20 43.3714C20.8294 43.3714 21.6002 42.944 22.0394 42.2404L23.645 39.6686C32.9502 37.9552 40 29.8009 40 20C40 8.95431 31.0457 0 20 0Z"/>
</mask>
<path fill-rule="evenodd" clip-rule="evenodd" d="M20 0C8.95431 0 0 8.95431 0 20C0 29.8009 7.04976 37.9552 16.355 39.6686L17.9606 42.2404C18.3998 42.944 19.1706 43.3714 20 43.3714C20.8294 43.3714 21.6002 42.944 22.0394 42.2404L23.645 39.6686C32.9502 37.9552 40 29.8009 40 20C40 8.95431 31.0457 0 20 0Z" fill="white"/>
<path d="M16.355 39.6686L17.2033 39.1391L16.9698 38.765L16.5361 38.6852L16.355 39.6686ZM17.9606 42.2404L18.8088 41.7108V41.7108L17.9606 42.2404ZM22.0394 42.2404L21.1912 41.7108L22.0394 42.2404ZM23.645 39.6686L23.4639 38.6852L23.0302 38.765L22.7967 39.1391L23.645 39.6686ZM1 20C1 9.50659 9.50659 1 20 1V-1C8.40202 -1 -1 8.40202 -1 20H1ZM16.5361 38.6852C7.69673 37.0575 1 29.3097 1 20H-1C-1 30.292 6.40279 38.8528 16.1739 40.6521L16.5361 38.6852ZM18.8088 41.7108L17.2033 39.1391L15.5067 40.1982L17.1123 42.77L18.8088 41.7108ZM20 42.3714C19.5156 42.3714 19.0654 42.1218 18.8088 41.7108L17.1123 42.77C17.7342 43.7661 18.8256 44.3714 20 44.3714V42.3714ZM21.1912 41.7108C20.9346 42.1218 20.4844 42.3714 20 42.3714V44.3714C21.1744 44.3714 22.2658 43.7661 22.8877 42.77L21.1912 41.7108ZM22.7967 39.1391L21.1912 41.7108L22.8877 42.77L24.4933 40.1982L22.7967 39.1391ZM39 20C39 29.3097 32.3033 37.0575 23.4639 38.6852L23.8261 40.6521C33.5972 38.8528 41 30.292 41 20H39ZM20 1C30.4934 1 39 9.50659 39 20H41C41 8.40202 31.598 -1 20 -1V1Z" fill="#245ED1" mask="url(#path-2-inside-1_162_8166)"/>
<rect x="4" y="4" width="32" height="32" rx="16" fill="#4880EE"/>
<path d="M17.8451 26.2186V23.9517C17.8451 23.373 18.3245 22.9039 18.9158 22.9039H21.0776C21.3615 22.9039 21.6339 23.0143 21.8347 23.2108C22.0355 23.4073 22.1483 23.6738 22.1483 23.9517V26.2186C22.1465 26.4592 22.2429 26.6905 22.4161 26.8612C22.5894 27.032 22.8251 27.128 23.0709 27.128H24.5457C25.2345 27.1297 25.8957 26.8632 26.3834 26.3872C26.8711 25.9112 27.1452 25.2649 27.1452 24.5909V18.1329C27.1452 17.5884 26.8985 17.0719 26.4717 16.7226L21.4547 12.8017C20.582 12.1142 19.3315 12.1364 18.4849 12.8544L13.5823 16.7226C13.1353 17.0616 12.8682 17.5796 12.855 18.1329V24.5843C12.855 25.9891 14.0188 27.128 15.4544 27.128H16.8956C17.4062 27.128 17.8212 26.7249 17.8249 26.2252L17.8451 26.2186Z" fill="white"/>
</svg>
