<svg width="30" height="30" viewBox="0 0 30 30" fill="none" xmlns="http://www.w3.org/2000/svg">
<path fill-rule="evenodd" clip-rule="evenodd" d="M12.7835 3.99387C12.7223 3.95405 12.6514 3.93148 12.5784 3.92855C12.5054 3.92562 12.4329 3.94243 12.3687 3.97721C12.3044 4.01199 12.2507 4.06346 12.2133 4.12619C12.1758 4.18892 12.1559 4.26059 12.1558 4.33366V22.4943C12.1556 22.562 12.1724 22.6287 12.2046 22.6884C12.2368 22.748 12.2834 22.7986 12.3401 22.8356L17.216 26.0059C17.2773 26.0459 17.3483 26.0686 17.4214 26.0716C17.4945 26.0746 17.5671 26.0577 17.6315 26.0229C17.6958 25.988 17.7496 25.9364 17.787 25.8735C17.8245 25.8107 17.8443 25.7388 17.8443 25.6656V7.51669C17.8445 7.44881 17.8277 7.38196 17.7954 7.32225C17.7631 7.26254 17.7163 7.21187 17.6594 7.17487L12.7835 3.99387ZM4.44434 7.75381C4.19425 7.89616 3.98644 8.10235 3.84215 8.35132C3.69786 8.60029 3.62225 8.8831 3.62306 9.17086V24.2434C3.62215 24.5242 3.69402 24.8005 3.83166 25.0453C3.9693 25.2901 4.16802 25.495 4.40844 25.6401C4.64886 25.7853 4.92278 25.8656 5.20349 25.8734C5.48421 25.8811 5.76215 25.816 6.01021 25.6844C6.03204 25.6727 6.05338 25.6605 6.0742 25.6468L10.3477 22.8508C10.4045 22.8137 10.4511 22.7631 10.4833 22.7035C10.5155 22.6439 10.5322 22.5772 10.5321 22.5094V4.35644C10.5323 4.28242 10.5123 4.20975 10.4742 4.14628C10.4361 4.08281 10.3814 4.03094 10.316 3.99628C10.2506 3.96162 10.177 3.94548 10.1031 3.94961C10.0292 3.95373 9.95782 3.97797 9.89669 4.0197L4.44434 7.75381ZM24.797 4.12172C25.0777 4.12956 25.3515 4.21083 25.591 4.35742C25.8342 4.50848 26.0342 4.71972 26.1719 4.97071C26.3095 5.22171 26.3801 5.50397 26.3767 5.79021V20.8242C26.3772 21.114 26.3002 21.3987 26.1537 21.6487C26.0071 21.8988 25.7964 22.1051 25.5433 22.2463L20.1051 25.9774C20.044 26.0192 19.9726 26.0436 19.8986 26.0478C19.8246 26.052 19.7509 26.0359 19.6854 26.0012C19.6199 25.9665 19.5652 25.9146 19.5271 25.851C19.489 25.7875 19.469 25.7147 19.4692 25.6406V7.48509C19.4691 7.41734 19.4859 7.35062 19.5181 7.29101C19.5503 7.2314 19.5969 7.18079 19.6536 7.14378L23.9276 4.35031C23.948 4.33651 23.9692 4.32396 23.9911 4.31272C24.2384 4.17973 24.5163 4.11388 24.797 4.12172Z" fill="#393F48"/>
</svg>
